<svg id="visual" viewBox="0 0 540 960" width="540" height="960" xmlns="http://www.w3.org/2000/svg" xmlns:xlink="http://www.w3.org/1999/xlink" version="1.1"><g stroke-width="1" stroke-linejoin="bevel"><path d="M280 494L235 522L260 549Z" fill="#3a3d41" stroke="#3a3d41"></path><path d="M202 600L268 571L260 549Z" fill="#3a3d41" stroke="#3a3d41"></path><path d="M260 549L371 523L280 494Z" fill="#464646" stroke="#464646"></path><path d="M280 494L247 448L235 522Z" fill="#1a2634" stroke="#1a2634"></path><path d="M247 448L179 502L235 522Z" fill="#404143" stroke="#404143"></path><path d="M235 522L202 600L260 549Z" fill="#272f39" stroke="#272f39"></path><path d="M168 578L202 600L235 522Z" fill="#2d333c" stroke="#2d333c"></path><path d="M268 571L371 523L260 549Z" fill="#0a1e2f" stroke="#0a1e2f"></path><path d="M280 494L260 413L247 448Z" fill="#3a3d41" stroke="#3a3d41"></path><path d="M366 398L260 413L280 494Z" fill="#272f39" stroke="#272f39"></path><path d="M247 448L207 405L179 502Z" fill="#021a2d" stroke="#021a2d"></path><path d="M179 502L156 533L235 522Z" fill="#212b37" stroke="#212b37"></path><path d="M156 533L168 578L235 522Z" fill="#212b37" stroke="#212b37"></path><path d="M179 502L146 527L156 533Z" fill="#132232" stroke="#132232"></path><path d="M156 533L138 569L168 578Z" fill="#464646" stroke="#464646"></path><path d="M118 497L146 527L179 502Z" fill="#0a1e2f" stroke="#0a1e2f"></path><path d="M371 523L384 508L280 494Z" fill="#021a2d" stroke="#021a2d"></path><path d="M260 413L207 405L247 448Z" fill="#464646" stroke="#464646"></path><path d="M168 578L205 634L202 600Z" fill="#1a2634" stroke="#1a2634"></path><path d="M202 600L212 642L268 571Z" fill="#0a1e2f" stroke="#0a1e2f"></path><path d="M268 571L345 631L371 523Z" fill="#132232" stroke="#132232"></path><path d="M205 634L212 642L202 600Z" fill="#0a1e2f" stroke="#0a1e2f"></path><path d="M146 527L138 569L156 533Z" fill="#272f39" stroke="#272f39"></path><path d="M168 578L114 664L205 634Z" fill="#021a2d" stroke="#021a2d"></path><path d="M205 634L114 664L212 642Z" fill="#2d333c" stroke="#2d333c"></path><path d="M289 667L345 631L268 571Z" fill="#33383e" stroke="#33383e"></path><path d="M371 523L426 578L384 508Z" fill="#3a3d41" stroke="#3a3d41"></path><path d="M207 362L192 402L207 405Z" fill="#132232" stroke="#132232"></path><path d="M207 405L152 420L179 502Z" fill="#272f39" stroke="#272f39"></path><path d="M455 550L406 476L384 508Z" fill="#0a1e2f" stroke="#0a1e2f"></path><path d="M384 508L366 398L280 494Z" fill="#272f39" stroke="#272f39"></path><path d="M345 631L393 594L371 523Z" fill="#2d333c" stroke="#2d333c"></path><path d="M152 420L118 497L179 502Z" fill="#3a3d41" stroke="#3a3d41"></path><path d="M146 527L96 567L138 569Z" fill="#2d333c" stroke="#2d333c"></path><path d="M212 642L289 667L268 571Z" fill="#132232" stroke="#132232"></path><path d="M192 402L152 420L207 405Z" fill="#0a1e2f" stroke="#0a1e2f"></path><path d="M398 424L366 398L384 508Z" fill="#404143" stroke="#404143"></path><path d="M260 413L211 362L207 405Z" fill="#2d333c" stroke="#2d333c"></path><path d="M345 631L384 629L393 594Z" fill="#132232" stroke="#132232"></path><path d="M341 690L384 629L345 631Z" fill="#0a1e2f" stroke="#0a1e2f"></path><path d="M406 476L398 424L384 508Z" fill="#272f39" stroke="#272f39"></path><path d="M274 341L211 362L260 413Z" fill="#464646" stroke="#464646"></path><path d="M192 402L118 325L152 420Z" fill="#3a3d41" stroke="#3a3d41"></path><path d="M211 362L207 362L207 405Z" fill="#404143" stroke="#404143"></path><path d="M384 629L426 578L393 594Z" fill="#404143" stroke="#404143"></path><path d="M393 594L426 578L371 523Z" fill="#33383e" stroke="#33383e"></path><path d="M406 476L460 440L398 424Z" fill="#1a2634" stroke="#1a2634"></path><path d="M118 497L96 567L146 527Z" fill="#132232" stroke="#132232"></path><path d="M138 569L114 664L168 578Z" fill="#272f39" stroke="#272f39"></path><path d="M152 420L96 463L118 497Z" fill="#0a1e2f" stroke="#0a1e2f"></path><path d="M118 497L57 565L96 567Z" fill="#404143" stroke="#404143"></path><path d="M78 358L96 463L152 420Z" fill="#212b37" stroke="#212b37"></path><path d="M366 398L274 341L260 413Z" fill="#212b37" stroke="#212b37"></path><path d="M211 362L246 290L207 362Z" fill="#404143" stroke="#404143"></path><path d="M398 424L385 383L366 398Z" fill="#212b37" stroke="#212b37"></path><path d="M366 398L390 356L274 341Z" fill="#0a1e2f" stroke="#0a1e2f"></path><path d="M263 740L341 690L289 667Z" fill="#212b37" stroke="#212b37"></path><path d="M289 667L341 690L345 631Z" fill="#021a2d" stroke="#021a2d"></path><path d="M511 568L455 550L426 578Z" fill="#212b37" stroke="#212b37"></path><path d="M448 692L426 578L384 629Z" fill="#2d333c" stroke="#2d333c"></path><path d="M426 578L455 550L384 508Z" fill="#272f39" stroke="#272f39"></path><path d="M450 385L390 356L385 383Z" fill="#464646" stroke="#464646"></path><path d="M450 385L385 383L398 424Z" fill="#33383e" stroke="#33383e"></path><path d="M385 383L390 356L366 398Z" fill="#0a1e2f" stroke="#0a1e2f"></path><path d="M78 630L114 664L138 569Z" fill="#021a2d" stroke="#021a2d"></path><path d="M212 642L210 727L289 667Z" fill="#132232" stroke="#132232"></path><path d="M479 488L460 440L406 476Z" fill="#0a1e2f" stroke="#0a1e2f"></path><path d="M96 463L57 565L118 497Z" fill="#0a1e2f" stroke="#0a1e2f"></path><path d="M96 567L78 630L138 569Z" fill="#132232" stroke="#132232"></path><path d="M114 664L210 727L212 642Z" fill="#2d333c" stroke="#2d333c"></path><path d="M455 550L479 488L406 476Z" fill="#33383e" stroke="#33383e"></path><path d="M57 565L78 630L96 567Z" fill="#3a3d41" stroke="#3a3d41"></path><path d="M384 758L408 684L341 690Z" fill="#404143" stroke="#404143"></path><path d="M341 690L408 684L384 629Z" fill="#132232" stroke="#132232"></path><path d="M455 550L511 568L479 488Z" fill="#272f39" stroke="#272f39"></path><path d="M210 727L263 740L289 667Z" fill="#212b37" stroke="#212b37"></path><path d="M217 743L219 739L210 727Z" fill="#132232" stroke="#132232"></path><path d="M210 727L219 739L263 740Z" fill="#1a2634" stroke="#1a2634"></path><path d="M158 767L217 743L210 727Z" fill="#132232" stroke="#132232"></path><path d="M219 739L255 773L263 740Z" fill="#021a2d" stroke="#021a2d"></path><path d="M540 451L450 385L460 440Z" fill="#1a2634" stroke="#1a2634"></path><path d="M460 440L450 385L398 424Z" fill="#1a2634" stroke="#1a2634"></path><path d="M269 267L246 290L274 341Z" fill="#1a2634" stroke="#1a2634"></path><path d="M274 341L246 290L211 362Z" fill="#33383e" stroke="#33383e"></path><path d="M207 362L118 325L192 402Z" fill="#212b37" stroke="#212b37"></path><path d="M255 773L337 742L263 740Z" fill="#3a3d41" stroke="#3a3d41"></path><path d="M263 740L337 742L341 690Z" fill="#464646" stroke="#464646"></path><path d="M174 281L118 325L207 362Z" fill="#272f39" stroke="#272f39"></path><path d="M96 463L0 518L57 565Z" fill="#404143" stroke="#404143"></path><path d="M118 325L78 358L152 420Z" fill="#021a2d" stroke="#021a2d"></path><path d="M78 358L42 412L96 463Z" fill="#272f39" stroke="#272f39"></path><path d="M489 691L511 568L426 578Z" fill="#212b37" stroke="#212b37"></path><path d="M479 488L540 451L460 440Z" fill="#0a1e2f" stroke="#0a1e2f"></path><path d="M384 758L448 692L408 684Z" fill="#0a1e2f" stroke="#0a1e2f"></path><path d="M408 684L448 692L384 629Z" fill="#2d333c" stroke="#2d333c"></path><path d="M326 267L269 267L274 341Z" fill="#272f39" stroke="#272f39"></path><path d="M193 272L174 281L207 362Z" fill="#33383e" stroke="#33383e"></path><path d="M326 267L274 341L390 356Z" fill="#33383e" stroke="#33383e"></path><path d="M232 838L255 773L217 743Z" fill="#021a2d" stroke="#021a2d"></path><path d="M217 743L255 773L219 739Z" fill="#2d333c" stroke="#2d333c"></path><path d="M269 267L255 266L246 290Z" fill="#132232" stroke="#132232"></path><path d="M193 272L207 362L246 290Z" fill="#404143" stroke="#404143"></path><path d="M450 385L404 305L390 356Z" fill="#2d333c" stroke="#2d333c"></path><path d="M255 266L193 272L246 290Z" fill="#0a1e2f" stroke="#0a1e2f"></path><path d="M379 276L326 267L390 356Z" fill="#0a1e2f" stroke="#0a1e2f"></path><path d="M269 267L326 215L255 266Z" fill="#212b37" stroke="#212b37"></path><path d="M0 449L0 518L96 463Z" fill="#464646" stroke="#464646"></path><path d="M57 565L0 593L78 630Z" fill="#33383e" stroke="#33383e"></path><path d="M80 768L124 745L24 724Z" fill="#1a2634" stroke="#1a2634"></path><path d="M114 664L124 745L210 727Z" fill="#464646" stroke="#464646"></path><path d="M24 724L114 664L78 630Z" fill="#0a1e2f" stroke="#0a1e2f"></path><path d="M401 777L384 758L363 828Z" fill="#404143" stroke="#404143"></path><path d="M337 742L384 758L341 690Z" fill="#1a2634" stroke="#1a2634"></path><path d="M0 518L0 555L57 565Z" fill="#132232" stroke="#132232"></path><path d="M404 305L379 276L390 356Z" fill="#404143" stroke="#404143"></path><path d="M124 745L158 767L210 727Z" fill="#404143" stroke="#404143"></path><path d="M42 412L0 449L96 463Z" fill="#464646" stroke="#464646"></path><path d="M0 339L0 449L42 412Z" fill="#464646" stroke="#464646"></path><path d="M0 555L0 593L57 565Z" fill="#1a2634" stroke="#1a2634"></path><path d="M540 567L540 539L511 568Z" fill="#2d333c" stroke="#2d333c"></path><path d="M511 568L540 539L479 488Z" fill="#3a3d41" stroke="#3a3d41"></path><path d="M450 385L463 291L404 305Z" fill="#1a2634" stroke="#1a2634"></path><path d="M540 646L540 567L511 568Z" fill="#33383e" stroke="#33383e"></path><path d="M470 810L489 691L448 692Z" fill="#2d333c" stroke="#2d333c"></path><path d="M448 692L489 691L426 578Z" fill="#1a2634" stroke="#1a2634"></path><path d="M540 539L540 456L479 488Z" fill="#021a2d" stroke="#021a2d"></path><path d="M404 305L388 243L379 276Z" fill="#33383e" stroke="#33383e"></path><path d="M540 456L540 451L479 488Z" fill="#0a1e2f" stroke="#0a1e2f"></path><path d="M540 743L498 690L489 691Z" fill="#464646" stroke="#464646"></path><path d="M489 691L540 646L511 568Z" fill="#1a2634" stroke="#1a2634"></path><path d="M107 262L143 198L97 241Z" fill="#021a2d" stroke="#021a2d"></path><path d="M107 262L104 279L174 281Z" fill="#212b37" stroke="#212b37"></path><path d="M174 281L104 279L118 325Z" fill="#0a1e2f" stroke="#0a1e2f"></path><path d="M118 325L54 279L78 358Z" fill="#212b37" stroke="#212b37"></path><path d="M78 358L0 339L42 412Z" fill="#2d333c" stroke="#2d333c"></path><path d="M363 828L384 758L337 742Z" fill="#3a3d41" stroke="#3a3d41"></path><path d="M384 758L401 777L448 692Z" fill="#1a2634" stroke="#1a2634"></path><path d="M232 838L302 812L255 773Z" fill="#212b37" stroke="#212b37"></path><path d="M255 773L302 812L337 742Z" fill="#3a3d41" stroke="#3a3d41"></path><path d="M0 593L0 650L78 630Z" fill="#212b37" stroke="#212b37"></path><path d="M107 262L174 281L143 198Z" fill="#3a3d41" stroke="#3a3d41"></path><path d="M104 279L54 279L118 325Z" fill="#2d333c" stroke="#2d333c"></path><path d="M143 198L193 272L242 150Z" fill="#212b37" stroke="#212b37"></path><path d="M540 323L463 291L450 385Z" fill="#212b37" stroke="#212b37"></path><path d="M379 276L344 226L326 267Z" fill="#33383e" stroke="#33383e"></path><path d="M326 267L326 215L269 267Z" fill="#33383e" stroke="#33383e"></path><path d="M460 253L388 243L404 305Z" fill="#212b37" stroke="#212b37"></path><path d="M498 690L540 646L489 691Z" fill="#2d333c" stroke="#2d333c"></path><path d="M124 745L151 801L158 767Z" fill="#272f39" stroke="#272f39"></path><path d="M158 767L232 838L217 743Z" fill="#212b37" stroke="#212b37"></path><path d="M104 807L151 801L124 745Z" fill="#272f39" stroke="#272f39"></path><path d="M388 243L344 226L379 276Z" fill="#33383e" stroke="#33383e"></path><path d="M24 724L124 745L114 664Z" fill="#464646" stroke="#464646"></path><path d="M402 195L326 215L344 226Z" fill="#132232" stroke="#132232"></path><path d="M344 226L326 215L326 267Z" fill="#132232" stroke="#132232"></path><path d="M0 650L24 724L78 630Z" fill="#2d333c" stroke="#2d333c"></path><path d="M107 262L54 279L104 279Z" fill="#464646" stroke="#464646"></path><path d="M151 801L232 838L158 767Z" fill="#404143" stroke="#404143"></path><path d="M302 812L363 828L337 742Z" fill="#0a1e2f" stroke="#0a1e2f"></path><path d="M54 279L0 339L78 358Z" fill="#272f39" stroke="#272f39"></path><path d="M0 650L0 703L24 724Z" fill="#0a1e2f" stroke="#0a1e2f"></path><path d="M303 870L363 828L302 812Z" fill="#021a2d" stroke="#021a2d"></path><path d="M401 777L470 810L448 692Z" fill="#2d333c" stroke="#2d333c"></path><path d="M143 198L174 281L193 272Z" fill="#272f39" stroke="#272f39"></path><path d="M107 262L97 241L54 279Z" fill="#2d333c" stroke="#2d333c"></path><path d="M80 768L104 807L124 745Z" fill="#0a1e2f" stroke="#0a1e2f"></path><path d="M151 801L166 881L232 838Z" fill="#212b37" stroke="#212b37"></path><path d="M24 864L104 807L80 768Z" fill="#132232" stroke="#132232"></path><path d="M0 769L80 768L24 724Z" fill="#021a2d" stroke="#021a2d"></path><path d="M388 243L402 195L344 226Z" fill="#0a1e2f" stroke="#0a1e2f"></path><path d="M463 291L460 253L404 305Z" fill="#3a3d41" stroke="#3a3d41"></path><path d="M540 227L460 253L463 291Z" fill="#464646" stroke="#464646"></path><path d="M540 451L540 323L450 385Z" fill="#021a2d" stroke="#021a2d"></path><path d="M144 188L143 198L242 150Z" fill="#021a2d" stroke="#021a2d"></path><path d="M0 262L0 276L54 279Z" fill="#3a3d41" stroke="#3a3d41"></path><path d="M363 828L438 817L401 777Z" fill="#3a3d41" stroke="#3a3d41"></path><path d="M498 690L540 743L540 646Z" fill="#2d333c" stroke="#2d333c"></path><path d="M540 323L540 311L463 291Z" fill="#1a2634" stroke="#1a2634"></path><path d="M460 253L402 195L388 243Z" fill="#021a2d" stroke="#021a2d"></path><path d="M242 150L193 272L255 266Z" fill="#0a1e2f" stroke="#0a1e2f"></path><path d="M489 171L402 195L460 253Z" fill="#272f39" stroke="#272f39"></path><path d="M221 918L303 870L232 838Z" fill="#404143" stroke="#404143"></path><path d="M232 838L303 870L302 812Z" fill="#2d333c" stroke="#2d333c"></path><path d="M363 828L404 898L438 817Z" fill="#132232" stroke="#132232"></path><path d="M242 150L255 266L326 215Z" fill="#0a1e2f" stroke="#0a1e2f"></path><path d="M143 198L144 188L97 241Z" fill="#404143" stroke="#404143"></path><path d="M540 751L540 743L489 691Z" fill="#021a2d" stroke="#021a2d"></path><path d="M504 807L470 810L540 860Z" fill="#212b37" stroke="#212b37"></path><path d="M438 817L470 810L401 777Z" fill="#0a1e2f" stroke="#0a1e2f"></path><path d="M470 810L540 751L489 691Z" fill="#404143" stroke="#404143"></path><path d="M0 262L54 279L0 197Z" fill="#2d333c" stroke="#2d333c"></path><path d="M54 279L0 276L0 339Z" fill="#464646" stroke="#464646"></path><path d="M0 703L0 769L24 724Z" fill="#464646" stroke="#464646"></path><path d="M303 870L328 880L363 828Z" fill="#0a1e2f" stroke="#0a1e2f"></path><path d="M331 960L328 880L303 870Z" fill="#132232" stroke="#132232"></path><path d="M0 197L54 279L97 241Z" fill="#404143" stroke="#404143"></path><path d="M318 153L242 150L326 215Z" fill="#33383e" stroke="#33383e"></path><path d="M402 195L318 153L326 215Z" fill="#464646" stroke="#464646"></path><path d="M470 810L504 807L540 751Z" fill="#404143" stroke="#404143"></path><path d="M466 913L470 810L438 817Z" fill="#404143" stroke="#404143"></path><path d="M90 888L133 870L104 807Z" fill="#272f39" stroke="#272f39"></path><path d="M104 807L133 870L151 801Z" fill="#021a2d" stroke="#021a2d"></path><path d="M133 870L166 881L151 801Z" fill="#021a2d" stroke="#021a2d"></path><path d="M385 117L322 137L318 153Z" fill="#212b37" stroke="#212b37"></path><path d="M318 153L255 116L242 150Z" fill="#0a1e2f" stroke="#0a1e2f"></path><path d="M224 960L221 918L186 960Z" fill="#3a3d41" stroke="#3a3d41"></path><path d="M166 881L221 918L232 838Z" fill="#33383e" stroke="#33383e"></path><path d="M540 311L540 227L463 291Z" fill="#212b37" stroke="#212b37"></path><path d="M402 195L385 117L318 153Z" fill="#464646" stroke="#464646"></path><path d="M345 960L404 898L328 880Z" fill="#272f39" stroke="#272f39"></path><path d="M328 880L404 898L363 828Z" fill="#404143" stroke="#404143"></path><path d="M322 137L255 116L318 153Z" fill="#404143" stroke="#404143"></path><path d="M242 150L198 105L144 188Z" fill="#132232" stroke="#132232"></path><path d="M21 141L0 197L97 241Z" fill="#132232" stroke="#132232"></path><path d="M24 864L90 888L104 807Z" fill="#33383e" stroke="#33383e"></path><path d="M133 870L139 960L166 881Z" fill="#1a2634" stroke="#1a2634"></path><path d="M540 227L489 171L460 253Z" fill="#272f39" stroke="#272f39"></path><path d="M291 69L253 95L255 116Z" fill="#3a3d41" stroke="#3a3d41"></path><path d="M21 141L97 241L144 188Z" fill="#404143" stroke="#404143"></path><path d="M255 116L198 105L242 150Z" fill="#272f39" stroke="#272f39"></path><path d="M419 103L385 117L402 195Z" fill="#021a2d" stroke="#021a2d"></path><path d="M255 116L253 95L198 105Z" fill="#132232" stroke="#132232"></path><path d="M0 769L24 864L80 768Z" fill="#272f39" stroke="#272f39"></path><path d="M198 105L145 113L144 188Z" fill="#2d333c" stroke="#2d333c"></path><path d="M291 69L255 116L322 137Z" fill="#1a2634" stroke="#1a2634"></path><path d="M198 105L148 30L145 113Z" fill="#404143" stroke="#404143"></path><path d="M0 769L0 861L24 864Z" fill="#212b37" stroke="#212b37"></path><path d="M51 960L139 960L90 888Z" fill="#021a2d" stroke="#021a2d"></path><path d="M540 227L540 183L489 171Z" fill="#464646" stroke="#464646"></path><path d="M489 171L419 103L402 195Z" fill="#404143" stroke="#404143"></path><path d="M466 913L540 860L470 810Z" fill="#272f39" stroke="#272f39"></path><path d="M504 807L540 860L540 751Z" fill="#212b37" stroke="#212b37"></path><path d="M415 960L466 913L404 898Z" fill="#464646" stroke="#464646"></path><path d="M404 898L466 913L438 817Z" fill="#404143" stroke="#404143"></path><path d="M186 960L221 918L166 881Z" fill="#464646" stroke="#464646"></path><path d="M221 918L331 960L303 870Z" fill="#021a2d" stroke="#021a2d"></path><path d="M186 960L166 881L139 960Z" fill="#464646" stroke="#464646"></path><path d="M489 136L419 103L489 171Z" fill="#464646" stroke="#464646"></path><path d="M358 45L291 69L322 137Z" fill="#132232" stroke="#132232"></path><path d="M540 183L489 136L489 171Z" fill="#3a3d41" stroke="#3a3d41"></path><path d="M224 960L331 960L221 918Z" fill="#33383e" stroke="#33383e"></path><path d="M139 960L133 870L90 888Z" fill="#132232" stroke="#132232"></path><path d="M331 960L345 960L328 880Z" fill="#132232" stroke="#132232"></path><path d="M145 113L21 141L144 188Z" fill="#1a2634" stroke="#1a2634"></path><path d="M358 45L322 137L385 117Z" fill="#272f39" stroke="#272f39"></path><path d="M253 95L214 68L198 105Z" fill="#1a2634" stroke="#1a2634"></path><path d="M145 113L25 118L21 141Z" fill="#0a1e2f" stroke="#0a1e2f"></path><path d="M466 913L540 879L540 860Z" fill="#132232" stroke="#132232"></path><path d="M291 69L214 68L253 95Z" fill="#1a2634" stroke="#1a2634"></path><path d="M0 931L90 888L24 864Z" fill="#3a3d41" stroke="#3a3d41"></path><path d="M345 960L415 960L404 898Z" fill="#404143" stroke="#404143"></path><path d="M466 913L540 960L540 879Z" fill="#2d333c" stroke="#2d333c"></path><path d="M92 69L25 118L145 113Z" fill="#464646" stroke="#464646"></path><path d="M21 141L0 129L0 197Z" fill="#272f39" stroke="#272f39"></path><path d="M25 118L0 129L21 141Z" fill="#021a2d" stroke="#021a2d"></path><path d="M148 30L92 69L145 113Z" fill="#2d333c" stroke="#2d333c"></path><path d="M25 118L0 71L0 129Z" fill="#1a2634" stroke="#1a2634"></path><path d="M419 40L358 45L419 103Z" fill="#0a1e2f" stroke="#0a1e2f"></path><path d="M419 103L358 45L385 117Z" fill="#132232" stroke="#132232"></path><path d="M201 0L148 30L214 68Z" fill="#2d333c" stroke="#2d333c"></path><path d="M214 68L148 30L198 105Z" fill="#132232" stroke="#132232"></path><path d="M415 960L473 960L466 913Z" fill="#132232" stroke="#132232"></path><path d="M0 861L0 931L24 864Z" fill="#132232" stroke="#132232"></path><path d="M0 931L51 960L90 888Z" fill="#2d333c" stroke="#2d333c"></path><path d="M223 0L214 68L291 69Z" fill="#3a3d41" stroke="#3a3d41"></path><path d="M92 69L0 71L25 118Z" fill="#1a2634" stroke="#1a2634"></path><path d="M509 59L419 40L419 103Z" fill="#0a1e2f" stroke="#0a1e2f"></path><path d="M308 0L223 0L291 69Z" fill="#404143" stroke="#404143"></path><path d="M509 59L419 103L489 136Z" fill="#1a2634" stroke="#1a2634"></path><path d="M540 183L540 86L489 136Z" fill="#33383e" stroke="#33383e"></path><path d="M0 931L0 960L51 960Z" fill="#33383e" stroke="#33383e"></path><path d="M473 960L540 960L466 913Z" fill="#33383e" stroke="#33383e"></path><path d="M84 0L0 71L92 69Z" fill="#021a2d" stroke="#021a2d"></path><path d="M308 0L291 69L358 45Z" fill="#021a2d" stroke="#021a2d"></path><path d="M148 30L84 0L92 69Z" fill="#272f39" stroke="#272f39"></path><path d="M540 86L509 59L489 136Z" fill="#1a2634" stroke="#1a2634"></path><path d="M355 0L308 0L358 45Z" fill="#212b37" stroke="#212b37"></path><path d="M355 0L358 45L419 40Z" fill="#1a2634" stroke="#1a2634"></path><path d="M223 0L201 0L214 68Z" fill="#212b37" stroke="#212b37"></path><path d="M449 0L355 0L419 40Z" fill="#021a2d" stroke="#021a2d"></path><path d="M201 0L152 0L148 30Z" fill="#2d333c" stroke="#2d333c"></path><path d="M540 86L540 55L509 59Z" fill="#33383e" stroke="#33383e"></path><path d="M481 0L449 0L419 40Z" fill="#1a2634" stroke="#1a2634"></path><path d="M152 0L84 0L148 30Z" fill="#33383e" stroke="#33383e"></path><path d="M481 0L419 40L509 59Z" fill="#404143" stroke="#404143"></path><path d="M540 0L481 0L509 59Z" fill="#132232" stroke="#132232"></path><path d="M84 0L0 0L0 71Z" fill="#3a3d41" stroke="#3a3d41"></path><path d="M540 55L540 0L509 59Z" fill="#3a3d41" stroke="#3a3d41"></path></g></svg>